<?xml version="1.0" standalone="no"?><!DOCTYPE svg PUBLIC "-//W3C//DTD SVG 1.1//EN" "http://www.w3.org/Graphics/SVG/1.1/DTD/svg11.dtd"><svg t="1527088599721" class="icon" style="" viewBox="0 0 1024 1024" version="1.1" xmlns="http://www.w3.org/2000/svg" p-id="1142" xmlns:xlink="http://www.w3.org/1999/xlink" width="200" height="200"><defs><style type="text/css"></style></defs><path d="M518.920828 971.016828c198.550069 2.754207 309.318621-77.34731 370.899862-162.23338 63.611586-87.675586 84.109241-199.20331 64.388413-305.840551C882.829241 117.248 518.920828 120.514207 518.920828 120.514207S155.030069 117.248 83.650207 502.942897c-19.738483 106.637241 0.776828 218.14731 64.388414 305.840551 61.563586 84.868414 172.332138 164.987586 370.882207 162.23338z" fill="#FDC794" p-id="1143"></path><path d="M79.430621 531.844414c-7.997793-7.574069-17.390345-12.129103-27.524414-12.129104-28.672 0-51.906207 34.974897-51.906207 78.106483 0 43.131586 23.234207 78.106483 51.888552 78.106483 12.129103 0 23.145931-6.532414 31.973517-17.019586a417.28 417.28 0 0 1-4.431448-127.064276zM1020.875034 464.278069c-9.939862-41.966345-40.606897-70.603034-68.484413-63.947035-8.66869 2.065655-15.854345 7.591724-21.627587 15.095173a570.968276 570.968276 0 0 1 23.446069 87.51669c2.736552 14.777379 4.608 29.643034 5.790897 44.526344 9.18069 5.014069 18.926345 7.097379 28.389517 4.837518 27.877517-6.638345 42.425379-46.062345 32.485517-88.02869z" fill="#F9A671" p-id="1144"></path><path d="M245.406897 300.102621a17.602207 17.602207 0 0 1-12.482207-5.172966l-88.275862-88.275862a17.637517 17.637517 0 1 1 24.964413-24.964414l88.275862 88.275862a17.637517 17.637517 0 0 1-12.482206 30.13738zM298.390069 247.137103a17.655172 17.655172 0 0 1-15.819035-9.76331l-52.965517-105.931034a17.655172 17.655172 0 0 1 31.585104-15.80138l52.965517 105.931035a17.655172 17.655172 0 0 1-15.766069 25.564689zM368.993103 211.826759a17.637517 17.637517 0 0 1-16.737103-12.076138l-35.310345-105.931035a17.655172 17.655172 0 1 1 33.491862-11.175724l35.310345 105.931035a17.655172 17.655172 0 0 1-16.754759 23.251862zM457.25131 194.171586a17.655172 17.655172 0 0 1-17.390344-14.759724l-17.655173-105.931034a17.637517 17.637517 0 1 1 34.816-5.790897l17.655173 105.931035a17.637517 17.637517 0 0 1-17.425656 20.55062zM527.889655 194.171586a17.655172 17.655172 0 0 1-17.655172-17.655172v-105.931035a17.655172 17.655172 0 1 1 35.310345 0v105.931035a17.655172 17.655172 0 0 1-17.655173 17.655172zM598.510345 194.171586a17.655172 17.655172 0 0 1-16.737104-23.251862l35.310345-105.931034a17.655172 17.655172 0 1 1 33.491862 11.175724l-35.310345 105.931034a17.655172 17.655172 0 0 1-16.754758 12.076138zM669.131034 211.826759a17.655172 17.655172 0 0 1-16.737103-23.251862l35.310345-105.931035a17.655172 17.655172 0 1 1 33.491862 11.175724l-35.310345 105.931035a17.655172 17.655172 0 0 1-16.754759 12.076138zM722.078897 247.137103a17.655172 17.655172 0 0 1-15.766069-25.547034l52.965517-105.931035a17.655172 17.655172 0 0 1 31.585103 15.80138l-52.965517 105.931034a17.655172 17.655172 0 0 1-15.819034 9.745655z" fill="#5E5F62" p-id="1145"></path><path d="M284.071724 423.688828c-0.971034 5.755586-1.588966 11.634759-1.588965 17.655172a105.931034 105.931034 0 1 0 211.862069 0c0-6.020414-0.617931-11.899586-1.588966-17.655172H284.071724zM495.563034 423.688828a142.071172 142.071172 0 0 0-1.218206 17.655172 141.241379 141.241379 0 0 0 282.482758 0c0-5.985103-0.494345-11.864276-1.218207-17.655172H495.563034z" fill="#FFFFFF" p-id="1146"></path><path d="M388.413793 335.412966a105.878069 105.878069 0 0 0-104.342069 88.275862h208.684138a105.860414 105.860414 0 0 0-104.342069-88.275862zM635.586207 300.102621c-72.015448 0-131.319172 53.936552-140.023173 123.586207h280.046345c-8.704-69.649655-68.007724-123.586207-140.023172-123.586207z" fill="#F9A671" p-id="1147"></path><path d="M406.068966 476.654345m-17.655173 0a17.655172 17.655172 0 1 0 35.310345 0 17.655172 17.655172 0 1 0-35.310345 0Z" fill="#7F5B53" p-id="1148"></path><path d="M591.448276 485.481931m-26.482759 0a26.482759 26.482759 0 1 0 52.965517 0 26.482759 26.482759 0 1 0-52.965517 0Z" fill="#7F5B53" p-id="1149"></path><path d="M300.137931 674.85131v0.547311c0 67.460414 37.234759 130.348138 97.862621 159.938207 37.764414 18.432 82.838069 29.748966 131.389793 29.748965 48.498759 0 93.643034-11.29931 131.513379-29.696 60.910345-29.590069 98.26869-92.813241 98.074483-160.538483H300.137931z" fill="#802D40" p-id="1150"></path><path d="M529.584552 753.558069c-83.314759 0-158.825931 19.049931-158.825931 62.534621l0.670896 2.683586c8.315586 6.17931 17.037241 11.917241 26.571035 16.560552 37.764414 18.432 82.838069 29.748966 131.389793 29.748965 48.498759 0 93.643034-11.29931 131.513379-29.696a169.401379 169.401379 0 0 0 27.188966-16.984276l0.459034-2.312827c0-43.48469-75.634759-62.534621-158.967172-62.534621z" fill="#E64C3C" p-id="1151"></path></svg>