<?xml version="1.0" standalone="no"?><!DOCTYPE svg PUBLIC "-//W3C//DTD SVG 1.1//EN" "http://www.w3.org/Graphics/SVG/1.1/DTD/svg11.dtd"><svg t="1527342865821" class="icon" style="" viewBox="0 0 1024 1024" version="1.1" xmlns="http://www.w3.org/2000/svg" p-id="5376" xmlns:xlink="http://www.w3.org/1999/xlink" width="200" height="200"><defs><style type="text/css"></style></defs><path d="M512 0C260.042105 0 53.894737 206.147368 53.894737 458.105263V898.245614c0 39.522807 32.336842 71.859649 71.859649 71.859649h121.74821c74.734035 36.307088 165.941895 53.894737 264.497404 53.894737s189.763368-17.587649 264.497404-53.894737H898.245614c39.522807 0 71.859649-32.336842 71.859649-71.859649V458.105263C970.105263 206.147368 763.957895 0 512 0z" fill="#6E5847" p-id="5377"></path><path d="M916.210526 538.947368c-199.392561 0-368.334596-142.964772-426.97207-340.758456C246.801965 210.063719 53.894737 410.354526 53.894737 655.719298 53.894737 908.719158 259.00014 1024 512 1024S970.105263 908.719158 970.105263 655.719298c0-41.049825-5.479298-80.82414-15.611509-118.67621-12.629333 1.167719-25.384421 1.904281-38.283228 1.90428z" fill="#FDC794" p-id="5378"></path><path d="M718.596491 898.245614a17.964912 17.964912 0 0 1-17.964912-17.964912c0-99.058526-80.590596-179.649123-179.649123-179.649123s-179.649123 80.590596-179.649123 179.649123a17.964912 17.964912 0 1 1-35.929824 0c0-118.873825 96.705123-215.578947 215.578947-215.578948s215.578947 96.705123 215.578948 215.578948a17.964912 17.964912 0 0 1-17.964913 17.964912zM413.192982 538.947368a17.911018 17.911018 0 0 1-12.701193-5.263719 89.932351 89.932351 0 0 0-127.029894 0 17.946947 17.946947 0 1 1-25.402386-25.402386 125.898105 125.898105 0 0 1 177.834666 0A17.946947 17.946947 0 0 1 413.192982 538.947368z" fill="#F9A671" p-id="5379"></path></svg>